<?xml version="1.0" encoding="UTF-8" standalone="no"?>
<!-- Created with Inkscape (http://www.inkscape.org/) -->

<svg
   width="512"
   height="512"
   viewBox="0 0 135.46666 135.46667"
   version="1.1"
   id="svg5"
   xmlns="http://www.w3.org/2000/svg"
   xmlns:svg="http://www.w3.org/2000/svg">
  <defs
     id="defs2" />
  <g
     id="layer1"
     transform="translate(0,-161.53332)">
    <circle
       style="fill:#4db6ac;fill-opacity:1;stroke:none;stroke-width:5.06912;stroke-miterlimit:4;stroke-dasharray:none;stroke-opacity:1"
       id="path2702"
       cx="67.733337"
       cy="229.26665"
       r="66.145836" />
    <path
       style="fill:#009688;fill-opacity:1;stroke:none;stroke-width:16;stroke-miterlimit:4;stroke-dasharray:none;stroke-opacity:1"
       id="path2024"
       d="m 129.58155,98.052872 85.27624,147.702788 85.27625,147.7028 -170.5525,0 -170.552494,-10e-6 85.276249,-147.70278 z"
       transform="matrix(0.44165504,0,0,0.44165503,10.502993,123.22708)" />
    <g
       style="fill:#ffffff"
       id="g2168"
       transform="matrix(2.2048611,0,0,2.2048611,41.275,216.56665)">
      <path
         d="M 0,0 H 24 V 24 H 0 Z M 0,0 H 24 V 24 H 0 Z M 0,0 H 24 V 24 H 0 Z M 0,0 H 24 V 24 H 0 Z"
         fill="none"
         id="path2156" />
      <path
         d="m 12,7 c 2.76,0 5,2.24 5,5 0,0.65 -0.13,1.26 -0.36,1.83 l 2.92,2.92 c 1.51,-1.26 2.7,-2.89 3.43,-4.75 -1.73,-4.39 -6,-7.5 -11,-7.5 -1.4,0 -2.74,0.25 -3.98,0.7 l 2.16,2.16 C 10.74,7.13 11.35,7 12,7 Z M 2,4.27 4.28,6.55 4.74,7.01 C 3.08,8.3 1.78,10.02 1,12 c 1.73,4.39 6,7.5 11,7.5 1.55,0 3.03,-0.3 4.38,-0.84 L 16.8,19.08 19.73,22 21,20.73 3.27,3 Z M 7.53,9.8 9.08,11.35 C 9.03,11.56 9,11.78 9,12 c 0,1.66 1.34,3 3,3 0.22,0 0.44,-0.03 0.65,-0.08 l 1.55,1.55 C 13.53,16.8 12.79,17 12,17 9.24,17 7,14.76 7,12 7,11.21 7.2,10.47 7.53,9.8 Z m 4.31,-0.78 3.15,3.15 0.02,-0.16 c 0,-1.66 -1.34,-3 -3,-3 z"
         id="path2158" />
    </g>
    <circle
       style="fill:none;fill-opacity:1;stroke:#ffffff;stroke-width:4.99930208;stroke-miterlimit:4;stroke-dasharray:none;stroke-opacity:1"
       id="path2702-1"
       cx="67.733337"
       cy="229.26665"
       r="65.233727" />
  </g>
</svg>
